<?xml version="1.0" encoding="UTF-8" standalone="no"?>
<!DOCTYPE svg PUBLIC "-//W3C//DTD SVG 1.1//EN" "http://www.w3.org/Graphics/SVG/1.1/DTD/svg11.dtd">
<svg xmlns="http://www.w3.org/2000/svg" version="1.1" xmlns:xlink="http://www.w3.org/1999/xlink" viewBox="0 0 512 288">

<!-- Copyright 2015 Isaac Gouy -->
<!-- http://benchmarksgame.alioth.debian.org/license.html -->

<g style="stroke: #ccc;" >
<line x1="51" y1="264" x2="511" y2="264" />
<line x1="51" y1="221.57" x2="511" y2="221.57" />
<line x1="51" y1="201.85" x2="511" y2="201.85" />
<line x1="51" y1="175.08" x2="511" y2="175.08" />
<line x1="51" y1="132.65" x2="511" y2="132.65" />
<line x1="51" y1="112.92" x2="511" y2="112.92" />
<line x1="51" y1="86.15" x2="511" y2="86.15" />
<line x1="51" y1="43.73" x2="511" y2="43.73" />
<line x1="51" y1="24" x2="511" y2="24" />
</g>
<g style="text-anchor: end; font-family: Ubuntu,Verdana,sans-serif; font-size: 0.9em;" >
<text x="51" y="262" >1</text>
<text x="51" y="219.57" >3</text>
<text x="51" y="199.85" >5</text>
<text x="51" y="173.08" >10</text>
<text x="51" y="130.65" >30</text>
<text x="51" y="110.92" >50</text>
<text x="51" y="84.15" >100</text>
<text x="51" y="41.73" >300</text>
<text x="51" y="22" ></text>
</g>
<defs>
<linearGradient id="grade" x1="0" y1="0" x2="0" y2="1">
<stop offset="0" style="stop-color: white" stop-opacity="0.6"/>
<stop offset="1" style="stop-color: white" stop-opacity="0.8"/>
</linearGradient>
<mask id="fade">
<rect x="58" y="24" width="452" height="288" fill="url(#grade)"  />
</mask>
<g id="backgroundText" style="text-anchor: end; font-family: Ubuntu,Verdana,sans-serif; font-size: 1em;">
<text x="13" y="0" transform="rotate(270,13,0)" xml:space="preserve">Dart   Dart   Dart   Dart   Dart   Dart   Dart   Dart   Dart</text>
<text x="35" y="0" transform="rotate(270,35,0)" xml:space="preserve">   TypeScript   TypeScript   TypeScript   TypeScript</text>
<text x="57" y="0" transform="rotate(270,57,0)" xml:space="preserve">   Racket   Racket   Racket   Racket   Racket   Racket</text>
<text x="79" y="0" transform="rotate(270,79,0)" xml:space="preserve">   Node js   Node js   Node js   Node js   Node js   Node js</text>
<br />
<b>Warning</b>:  Division by zero in <b>/home/dunham/8000-benchmarksgame/website/lib/lib_chartSVG.php</b> on line <b>289</b><br />
<br />
<b>Warning</b>:  str_repeat() expects parameter 2 to be integer, float given in <b>/home/dunham/8000-benchmarksgame/website/lib/lib_chartSVG.php</b> on line <b>290</b><br />
<text x="101" y="0" transform="rotate(270,101,0)" xml:space="preserve"></text>
<text x="123" y="0" transform="rotate(270,123,0)" xml:space="preserve">   PHP   PHP   PHP   PHP   PHP   PHP   PHP   PHP   PHP   PHP</text>
<text x="145" y="0" transform="rotate(270,145,0)" xml:space="preserve">Hack   Hack   Hack   Hack   Hack   Hack   Hack   Hack   Hack</text>
<text x="167" y="0" transform="rotate(270,167,0)" xml:space="preserve">   Erlang HiPE   Erlang HiPE   Erlang HiPE   Erlang HiPE</text>
<br />
<b>Warning</b>:  Division by zero in <b>/home/dunham/8000-benchmarksgame/website/lib/lib_chartSVG.php</b> on line <b>289</b><br />
<br />
<b>Warning</b>:  str_repeat() expects parameter 2 to be integer, float given in <b>/home/dunham/8000-benchmarksgame/website/lib/lib_chartSVG.php</b> on line <b>290</b><br />
<text x="189" y="0" transform="rotate(270,189,0)" xml:space="preserve"></text>
<text x="211" y="0" transform="rotate(270,211,0)" xml:space="preserve">   Truffle Ruby   Truffle Ruby   Truffle Ruby   Truffle Ruby</text>
<text x="233" y="0" transform="rotate(270,233,0)" xml:space="preserve">Perl   Perl   Perl   Perl   Perl   Perl   Perl   Perl   Perl</text>
<text x="255" y="0" transform="rotate(270,255,0)" xml:space="preserve">   Python 3   Python 3   Python 3   Python 3   Python 3</text>
<text x="277" y="0" transform="rotate(270,277,0)" xml:space="preserve">Ruby   Ruby   Ruby   Ruby   Ruby   Ruby   Ruby   Ruby   Ruby</text>
<text x="299" y="0" transform="rotate(270,299,0)" xml:space="preserve">   VW Smalltalk   VW Smalltalk   VW Smalltalk   VW Smalltalk</text>
<br />
<b>Warning</b>:  Division by zero in <b>/home/dunham/8000-benchmarksgame/website/lib/lib_chartSVG.php</b> on line <b>289</b><br />
<br />
<b>Warning</b>:  str_repeat() expects parameter 2 to be integer, float given in <b>/home/dunham/8000-benchmarksgame/website/lib/lib_chartSVG.php</b> on line <b>290</b><br />
<text x="321" y="0" transform="rotate(270,321,0)" xml:space="preserve"></text>
<text x="343" y="0" transform="rotate(270,343,0)" xml:space="preserve">   JRuby   JRuby   JRuby   JRuby   JRuby   JRuby   JRuby</text>
<br />
<b>Warning</b>:  Division by zero in <b>/home/dunham/8000-benchmarksgame/website/lib/lib_chartSVG.php</b> on line <b>289</b><br />
<br />
<b>Warning</b>:  str_repeat() expects parameter 2 to be integer, float given in <b>/home/dunham/8000-benchmarksgame/website/lib/lib_chartSVG.php</b> on line <b>290</b><br />
<text x="365" y="0" transform="rotate(270,365,0)" xml:space="preserve"></text>
<text x="387" y="0" transform="rotate(270,387,0)" xml:space="preserve">   Lua   Lua   Lua   Lua   Lua   Lua   Lua   Lua   Lua   Lua</text>
<br />
<b>Warning</b>:  Division by zero in <b>/home/dunham/8000-benchmarksgame/website/lib/lib_chartSVG.php</b> on line <b>289</b><br />
<br />
<b>Warning</b>:  str_repeat() expects parameter 2 to be integer, float given in <b>/home/dunham/8000-benchmarksgame/website/lib/lib_chartSVG.php</b> on line <b>290</b><br />
<text x="409" y="0" transform="rotate(270,409,0)" xml:space="preserve"></text>
<text x="431" y="0" transform="rotate(270,431,0)" xml:space="preserve">   Matz's Ruby   Matz's Ruby   Matz's Ruby   Matz's Ruby</text>
</g>
</defs>
<use x="60" y="27" xlink:href="#backgroundText"/>
<rect x="58" y="24" width="452" height="288" fill="white" mask="url(#fade)" />
<rect x="58" y="264" width="452" height="288" style="fill: white; stroke: white;" />
<g style="fill: black; stroke: black;">
<rect x="71" y="159.5" width="1" height="57.83" />
<rect x="93" y="153.44" width="1" height="64.27" />
<rect x="115" y="142.3" width="1" height="110.08" />
<rect x="137" y="151.92" width="1" height="67.06" />
<rect x="159" y="708.61" width="1" height="0" />
<rect x="181" y="95.63" width="1" height="158.01" />
<rect x="203" y="106.3" width="1" height="125.56" />
<rect x="225" y="111.78" width="1" height="109.73" />
<rect x="247" y="708.61" width="1" height="0" />
<rect x="269" y="88.09" width="1" height="112.87" />
<rect x="291" y="64.61" width="1" height="169.55" />
<rect x="313" y="70.69" width="1" height="164.3" />
<rect x="335" y="68.37" width="1" height="172.21" />
<rect x="357" y="63.86" width="1" height="118.58" />
<rect x="379" y="708.61" width="1" height="0" />
<rect x="401" y="57" width="1" height="102.29" />
<rect x="423" y="708.61" width="1" height="0" />
<rect x="445" y="62.54" width="1" height="60.89" />
<rect x="467" y="708.61" width="1" height="0" />
<rect x="489" y="-10.59" width="1" height="162.62" />
</g>
<g style="fill: white; stroke: black;">
<rect x="62" y="173.32" width="18" height="15.23" />
<rect x="84" y="166.34" width="18" height="19.76" />
<rect x="106" y="164.11" width="18" height="27.23" />
<rect x="128" y="168.52" width="18" height="17.8" />
<rect x="150" y="708.61" width="18" height="0" />
<rect x="172" y="118.67" width="18" height="70.71" />
<rect x="194" y="132.83" width="18" height="41.5" />
<rect x="216" y="138.13" width="18" height="40.79" />
<rect x="238" y="708.61" width="18" height="0" />
<rect x="260" y="91.55" width="18" height="73.93" />
<rect x="282" y="96.87" width="18" height="78.96" />
<rect x="304" y="89.57" width="18" height="82.75" />
<rect x="326" y="97.47" width="18" height="53.43" />
<rect x="348" y="82.12" width="18" height="79.2" />
<rect x="370" y="708.61" width="18" height="0" />
<rect x="392" y="86.09" width="18" height="53.46" />
<rect x="414" y="708.61" width="18" height="0" />
<rect x="436" y="67.48" width="18" height="48.36" />
<rect x="458" y="708.61" width="18" height="0" />
<rect x="480" y="20.98" width="18" height="71.58" />
</g>
<g style="fill: black; stroke: black;">
<line x1="67" y1="217.33" x2="75.5" y2="217.33" />
<line x1="67" y1="159.5" x2="75.5" y2="159.5" />
</g>
<g style="fill: black; stroke: black;">
<rect x="63" y="177.55" width="16" height="1" />
</g>
<g style="fill: black; stroke: black;">
<line x1="89" y1="217.72" x2="97.5" y2="217.72" />
<line x1="89" y1="153.44" x2="97.5" y2="153.44" />
</g>
<g style="fill: black; stroke: black;">
<rect x="85" y="182.68" width="16" height="1" />
</g>
<g style="fill: black; stroke: black;">
<line x1="111" y1="252.38" x2="119.5" y2="252.38" />
<line x1="111" y1="142.3" x2="119.5" y2="142.3" />
<line x1="111" y1="125.42" x2="119.5" y2="125.42" />
<rect x="115" y="125.42" width="1" height="5" />
</g>
<g style="fill: black; stroke: black;">
<rect x="107" y="171.12" width="16" height="1" />
</g>
<g style="fill: black; stroke: black;">
<line x1="133" y1="218.98" x2="141.5" y2="218.98" />
<line x1="133" y1="151.92" x2="141.5" y2="151.92" />
</g>
<g style="fill: black; stroke: black;">
<rect x="129" y="177.09" width="16" height="1" />
</g>
<g style="fill: black; stroke: black;">
<line x1="155" y1="708.61" x2="163.5" y2="708.61" />
<line x1="155" y1="708.61" x2="163.5" y2="708.61" />
</g>
<g style="fill: black; stroke: black;">
<rect x="151" y="707.61" width="16" height="1" />
</g>
<g style="fill: black; stroke: black;">
<line x1="177" y1="253.64" x2="185.5" y2="253.64" />
<line x1="177" y1="95.63" x2="185.5" y2="95.63" />
</g>
<g style="fill: black; stroke: black;">
<rect x="173" y="143.25" width="16" height="1" />
</g>
<g style="fill: black; stroke: black;">
<line x1="199" y1="231.86" x2="207.5" y2="231.86" />
<line x1="199" y1="106.3" x2="207.5" y2="106.3" />
<line x1="199" y1="94.2" x2="207.5" y2="94.2" />
<rect x="203" y="94.2" width="1" height="5" />
</g>
<g style="fill: black; stroke: black;">
<rect x="195" y="145.28" width="16" height="1" />
</g>
<g style="fill: black; stroke: black;">
<line x1="221" y1="221.51" x2="229.5" y2="221.51" />
<line x1="221" y1="111.78" x2="229.5" y2="111.78" />
<line x1="221" y1="95.03" x2="229.5" y2="95.03" />
<rect x="225" y="95.03" width="1" height="5" />
</g>
<g style="fill: black; stroke: black;">
<rect x="217" y="145.03" width="16" height="1" />
</g>
<g style="fill: black; stroke: black;">
<line x1="243" y1="708.61" x2="251.5" y2="708.61" />
<line x1="243" y1="708.61" x2="251.5" y2="708.61" />
</g>
<g style="fill: black; stroke: black;">
<rect x="239" y="707.61" width="16" height="1" />
</g>
<g style="fill: black; stroke: black;">
<line x1="265" y1="200.96" x2="273.5" y2="200.96" />
<line x1="265" y1="88.09" x2="273.5" y2="88.09" />
</g>
<g style="fill: black; stroke: black;">
<rect x="261" y="123.7" width="16" height="1" />
</g>
<g style="fill: black; stroke: black;">
<line x1="287" y1="234.16" x2="295.5" y2="234.16" />
<line x1="287" y1="64.61" x2="295.5" y2="64.61" />
<line x1="287" y1="25.32" x2="295.5" y2="25.32" />
<rect x="291" y="25.32" width="1" height="5" />
</g>
<g style="fill: black; stroke: black;">
<rect x="283" y="117.51" width="16" height="1" />
</g>
<g style="fill: black; stroke: black;">
<line x1="309" y1="234.98" x2="317.5" y2="234.98" />
<line x1="309" y1="70.69" x2="317.5" y2="70.69" />
</g>
<g style="fill: black; stroke: black;">
<rect x="305" y="119.56" width="16" height="1" />
</g>
<g style="fill: black; stroke: black;">
<line x1="331" y1="240.58" x2="339.5" y2="240.58" />
<line x1="331" y1="68.37" x2="339.5" y2="68.37" />
<line x1="331" y1="38.47" x2="339.5" y2="38.47" />
<rect x="335" y="38.47" width="1" height="5" />
</g>
<g style="fill: black; stroke: black;">
<rect x="327" y="119.13" width="16" height="1" />
</g>
<g style="fill: black; stroke: black;">
<line x1="353" y1="182.44" x2="361.5" y2="182.44" />
<line x1="353" y1="63.86" x2="361.5" y2="63.86" />
</g>
<g style="fill: black; stroke: black;">
<rect x="349" y="131.87" width="16" height="1" />
</g>
<g style="fill: black; stroke: black;">
<line x1="375" y1="708.61" x2="383.5" y2="708.61" />
<line x1="375" y1="708.61" x2="383.5" y2="708.61" />
</g>
<g style="fill: black; stroke: black;">
<rect x="371" y="707.61" width="16" height="1" />
</g>
<g style="fill: black; stroke: black;">
<line x1="397" y1="159.29" x2="405.5" y2="159.29" />
<line x1="397" y1="57" x2="405.5" y2="57" />
<line x1="397" y1="20.95" x2="405.5" y2="20.95" />
<rect x="401" y="20.95" width="1" height="5" />
</g>
<g style="fill: black; stroke: black;">
<rect x="393" y="102.42" width="16" height="1" />
</g>
<g style="fill: black; stroke: black;">
<line x1="419" y1="708.61" x2="427.5" y2="708.61" />
<line x1="419" y1="708.61" x2="427.5" y2="708.61" />
</g>
<g style="fill: black; stroke: black;">
<rect x="415" y="707.61" width="16" height="1" />
</g>
<g style="fill: black; stroke: black;">
<line x1="441" y1="123.44" x2="449.5" y2="123.44" />
<line x1="441" y1="62.54" x2="449.5" y2="62.54" />
</g>
<g style="fill: black; stroke: black;">
<rect x="437" y="96.77" width="16" height="1" />
</g>
<g style="fill: black; stroke: black;">
<line x1="463" y1="708.61" x2="471.5" y2="708.61" />
<line x1="463" y1="708.61" x2="471.5" y2="708.61" />
</g>
<g style="fill: black; stroke: black;">
<rect x="459" y="707.61" width="16" height="1" />
</g>
<g style="fill: black; stroke: black;">
<line x1="485" y1="152.03" x2="493.5" y2="152.03" />
<line x1="485" y1="-10.59" x2="493.5" y2="-10.59" />
<line x1="485" y1="-49.63" x2="493.5" y2="-49.63" />
<rect x="489" y="-49.63" width="1" height="5" />
</g>
<g style="fill: black; stroke: black;">
<rect x="481" y="24.27" width="16" height="1" />
</g>
<g style="text-anchor: end; font-family: Ubuntu,Verdana,sans-serif; font-size: 0.9em;" >
<text x="512" y="282" >01 May 2018 u64q</text>
<text x="58" y="282" style="text-anchor: start;" >benchmarks game</text>
</g>
<text x="16" y="144" transform="rotate(270,16,144)" style="text-anchor: middle; font-family: Ubuntu,Verdana,sans-serif; font-size: 0.9em;" >program time / fastest program time</text>
<text x="285" y="18" style="text-anchor: middle; font-family: Ubuntu,Verdana,sans-serif; font-size: 1.2em;" >How many times slower?</text>
<g style="stroke: #333;">
<line x1="58" y1="24" x2="58" y2="264" />
<line x1="511" y1="24" x2="511" y2="264" />
<line x1="58" y1="264" x2="511" y2="264" />
</g>
</svg>

