<?xml version="1.0" encoding="UTF-8" standalone="no"?>
<!DOCTYPE svg PUBLIC "-//W3C//DTD SVG 1.1//EN" "http://www.w3.org/Graphics/SVG/1.1/DTD/svg11.dtd">
<svg xmlns="http://www.w3.org/2000/svg" version="1.1" xmlns:xlink="http://www.w3.org/1999/xlink" viewBox="0 0 512 288">

<!-- Copyright 2015 Isaac Gouy -->
<!-- http://benchmarksgame.alioth.debian.org/license.html -->

<g style="stroke: #ccc;" >
<line x1="51" y1="264" x2="511" y2="264" />
<line x1="51" y1="221.57" x2="511" y2="221.57" />
<line x1="51" y1="201.85" x2="511" y2="201.85" />
<line x1="51" y1="175.08" x2="511" y2="175.08" />
<line x1="51" y1="132.65" x2="511" y2="132.65" />
<line x1="51" y1="112.92" x2="511" y2="112.92" />
<line x1="51" y1="86.15" x2="511" y2="86.15" />
<line x1="51" y1="43.73" x2="511" y2="43.73" />
<line x1="51" y1="24" x2="511" y2="24" />
</g>
<g style="text-anchor: end; font-family: Ubuntu,Verdana,sans-serif; font-size: 0.9em;" >
<text x="51" y="262" >1</text>
<text x="51" y="219.57" >3</text>
<text x="51" y="199.85" >5</text>
<text x="51" y="173.08" >10</text>
<text x="51" y="130.65" >30</text>
<text x="51" y="110.92" >50</text>
<text x="51" y="84.15" >100</text>
<text x="51" y="41.73" >300</text>
<text x="51" y="22" ></text>
</g>
<defs>
<linearGradient id="grade" x1="0" y1="0" x2="0" y2="1">
<stop offset="0" style="stop-color: white" stop-opacity="0.6"/>
<stop offset="1" style="stop-color: white" stop-opacity="0.8"/>
</linearGradient>
<mask id="fade">
<rect x="58" y="24" width="452" height="288" fill="url(#grade)"  />
</mask>
<g id="backgroundText" style="text-anchor: end; font-family: Ubuntu,Verdana,sans-serif; font-size: 1em;">
<text x="17" y="0" transform="rotate(270,17,0)" xml:space="preserve">   C gcc   C gcc   C gcc   C gcc   C gcc   C gcc   C gcc</text>
<text x="45" y="0" transform="rotate(270,45,0)" xml:space="preserve">   C++ g++   C++ g++   C++ g++   C++ g++   C++ g++   C++ g++</text>
<text x="73" y="0" transform="rotate(270,73,0)" xml:space="preserve">Rust   Rust   Rust   Rust   Rust   Rust   Rust   Rust   Rust</text>
<br />
<b>Warning</b>:  Division by zero in <b>/home/dunham/8000-benchmarksgame/website/lib/lib_chartSVG.php</b> on line <b>289</b><br />
<br />
<b>Warning</b>:  str_repeat() expects parameter 2 to be integer, float given in <b>/home/dunham/8000-benchmarksgame/website/lib/lib_chartSVG.php</b> on line <b>290</b><br />
<text x="101" y="0" transform="rotate(270,101,0)" xml:space="preserve"></text>
<text x="129" y="0" transform="rotate(270,129,0)" xml:space="preserve">da 2005 GNAT   Ada 2005 GNAT   Ada 2005 GNAT   Ada 2005 GNAT</text>
<text x="157" y="0" transform="rotate(270,157,0)" xml:space="preserve">   Chapel   Chapel   Chapel   Chapel   Chapel   Chapel</text>
<text x="185" y="0" transform="rotate(270,185,0)" xml:space="preserve">Java   Java   Java   Java   Java   Java   Java   Java   Java</text>
<text x="213" y="0" transform="rotate(270,213,0)" xml:space="preserve">ortran Intel   Fortran Intel   Fortran Intel   Fortran Intel</text>
<text x="241" y="0" transform="rotate(270,241,0)" xml:space="preserve">   C# .NET Core   C# .NET Core   C# .NET Core   C# .NET Core</text>
<text x="269" y="0" transform="rotate(270,269,0)" xml:space="preserve">   Swift   Swift   Swift   Swift   Swift   Swift   Swift</text>
<text x="297" y="0" transform="rotate(270,297,0)" xml:space="preserve">   Go   Go   Go   Go   Go   Go   Go   Go   Go   Go   Go   Go</text>
<text x="325" y="0" transform="rotate(270,325,0)" xml:space="preserve">   Lisp SBCL   Lisp SBCL   Lisp SBCL   Lisp SBCL   Lisp SBCL</text>
<text x="353" y="0" transform="rotate(270,353,0)" xml:space="preserve">   Free Pascal   Free Pascal   Free Pascal   Free Pascal</text>
<text x="381" y="0" transform="rotate(270,381,0)" xml:space="preserve">   OCaml   OCaml   OCaml   OCaml   OCaml   OCaml   OCaml</text>
<text x="409" y="0" transform="rotate(270,409,0)" xml:space="preserve">   F# .NET Core   F# .NET Core   F# .NET Core   F# .NET Core</text>
<text x="437" y="0" transform="rotate(270,437,0)" xml:space="preserve">   Haskell GHC   Haskell GHC   Haskell GHC   Haskell GHC</text>
</g>
</defs>
<use x="60" y="27" xlink:href="#backgroundText"/>
<rect x="58" y="24" width="452" height="288" fill="white" mask="url(#fade)" />
<rect x="58" y="264" width="452" height="288" style="fill: white; stroke: white;" />
<g style="fill: black; stroke: black;">
<rect x="74" y="256.21" width="1" height="7.79" />
<rect x="102" y="250.66" width="1" height="13.34" />
<rect x="130" y="237.03" width="1" height="26.97" />
<rect x="158" y="708.61" width="1" height="0" />
<rect x="186" y="205.5" width="1" height="57.8" />
<rect x="214" y="198.58" width="1" height="65.42" />
<rect x="242" y="199.31" width="1" height="43.64" />
<rect x="270" y="190.13" width="1" height="73.87" />
<rect x="298" y="202.3" width="1" height="43.42" />
<rect x="326" y="210.3" width="1" height="50.65" />
<rect x="354" y="191.39" width="1" height="64" />
<rect x="382" y="184.94" width="1" height="75.09" />
<rect x="410" y="161.16" width="1" height="100.35" />
<rect x="438" y="170.35" width="1" height="69.93" />
<rect x="466" y="152.98" width="1" height="102.75" />
<rect x="494" y="171.46" width="1" height="70.57" />
</g>
<g style="fill: white; stroke: black;">
<rect x="62" y="260.69" width="22" height="3.31" />
<rect x="90" y="258.1" width="22" height="5.9" />
<rect x="118" y="245.25" width="22" height="15.04" />
<rect x="146" y="708.61" width="22" height="0" />
<rect x="174" y="217.85" width="22" height="43.12" />
<rect x="202" y="203.09" width="22" height="48.85" />
<rect x="230" y="217.87" width="22" height="20.46" />
<rect x="258" y="215.55" width="22" height="37.44" />
<rect x="286" y="220.11" width="22" height="19.13" />
<rect x="314" y="225.82" width="22" height="15.45" />
<rect x="342" y="214.17" width="22" height="29.62" />
<rect x="370" y="200.24" width="22" height="31.67" />
<rect x="398" y="182.5" width="22" height="53.74" />
<rect x="426" y="195.43" width="22" height="36.33" />
<rect x="454" y="182.54" width="22" height="56.24" />
<rect x="482" y="179.98" width="22" height="50.79" />
</g>
<g style="fill: black; stroke: black;">
<line x1="67.5" y1="264" x2="79" y2="264" />
<line x1="67.5" y1="256.21" x2="79" y2="256.21" />
<line x1="67.5" y1="251.48" x2="79" y2="251.48" />
<rect x="74" y="251.48" width="1" height="5" />
</g>
<g style="fill: black; stroke: black;">
<rect x="63" y="261.44" width="20" height="1" />
</g>
<g style="fill: black; stroke: black;">
<line x1="95.5" y1="264" x2="107" y2="264" />
<line x1="95.5" y1="250.66" x2="107" y2="250.66" />
<line x1="95.5" y1="240.79" x2="107" y2="240.79" />
<rect x="102" y="240.79" width="1" height="5" />
</g>
<g style="fill: black; stroke: black;">
<rect x="91" y="262.18" width="20" height="1" />
</g>
<g style="fill: black; stroke: black;">
<line x1="123.5" y1="264" x2="135" y2="264" />
<line x1="123.5" y1="237.03" x2="135" y2="237.03" />
</g>
<g style="fill: black; stroke: black;">
<rect x="119" y="257.27" width="20" height="1" />
</g>
<g style="fill: black; stroke: black;">
<line x1="151.5" y1="708.61" x2="163" y2="708.61" />
<line x1="151.5" y1="708.61" x2="163" y2="708.61" />
</g>
<g style="fill: black; stroke: black;">
<rect x="147" y="707.61" width="20" height="1" />
</g>
<g style="fill: black; stroke: black;">
<line x1="179.5" y1="263.3" x2="191" y2="263.3" />
<line x1="179.5" y1="205.5" x2="191" y2="205.5" />
</g>
<g style="fill: black; stroke: black;">
<rect x="175" y="223.54" width="20" height="1" />
</g>
<g style="fill: black; stroke: black;">
<line x1="207.5" y1="264" x2="219" y2="264" />
<line x1="207.5" y1="198.58" x2="219" y2="198.58" />
</g>
<g style="fill: black; stroke: black;">
<rect x="203" y="231.32" width="20" height="1" />
</g>
<g style="fill: black; stroke: black;">
<line x1="235.5" y1="242.95" x2="247" y2="242.95" />
<line x1="235.5" y1="199.31" x2="247" y2="199.31" />
<line x1="235.5" y1="188.69" x2="247" y2="188.69" />
<rect x="242" y="188.69" width="1" height="5" />
</g>
<g style="fill: black; stroke: black;">
<rect x="231" y="230.82" width="20" height="1" />
</g>
<g style="fill: black; stroke: black;">
<line x1="263.5" y1="264" x2="275" y2="264" />
<line x1="263.5" y1="190.13" x2="275" y2="190.13" />
<line x1="263.5" y1="137.93" x2="275" y2="137.93" />
<rect x="270" y="137.93" width="1" height="5" />
</g>
<g style="fill: black; stroke: black;">
<rect x="259" y="231.85" width="20" height="1" />
</g>
<g style="fill: black; stroke: black;">
<line x1="291.5" y1="245.72" x2="303" y2="245.72" />
<line x1="291.5" y1="202.3" x2="303" y2="202.3" />
<line x1="291.5" y1="175.55" x2="303" y2="175.55" />
<rect x="298" y="175.55" width="1" height="5" />
</g>
<g style="fill: black; stroke: black;">
<rect x="287" y="230.18" width="20" height="1" />
</g>
<g style="fill: black; stroke: black;">
<line x1="319.5" y1="260.95" x2="331" y2="260.95" />
<line x1="319.5" y1="210.3" x2="331" y2="210.3" />
<line x1="319.5" y1="112.52" x2="331" y2="112.52" />
<rect x="326" y="112.52" width="1" height="5" />
</g>
<g style="fill: black; stroke: black;">
<rect x="315" y="234.53" width="20" height="1" />
</g>
<g style="fill: black; stroke: black;">
<line x1="347.5" y1="255.39" x2="359" y2="255.39" />
<line x1="347.5" y1="191.39" x2="359" y2="191.39" />
<line x1="347.5" y1="150.55" x2="359" y2="150.55" />
<rect x="354" y="150.55" width="1" height="5" />
</g>
<g style="fill: black; stroke: black;">
<rect x="343" y="226.92" width="20" height="1" />
</g>
<g style="fill: black; stroke: black;">
<line x1="375.5" y1="260.03" x2="387" y2="260.03" />
<line x1="375.5" y1="184.94" x2="387" y2="184.94" />
</g>
<g style="fill: black; stroke: black;">
<rect x="371" y="216.4" width="20" height="1" />
</g>
<g style="fill: black; stroke: black;">
<line x1="403.5" y1="261.5" x2="415" y2="261.5" />
<line x1="403.5" y1="161.16" x2="415" y2="161.16" />
</g>
<g style="fill: black; stroke: black;">
<rect x="399" y="224.08" width="20" height="1" />
</g>
<g style="fill: black; stroke: black;">
<line x1="431.5" y1="240.28" x2="443" y2="240.28" />
<line x1="431.5" y1="170.35" x2="443" y2="170.35" />
<line x1="431.5" y1="155.75" x2="443" y2="155.75" />
<rect x="438" y="155.75" width="1" height="5" />
</g>
<g style="fill: black; stroke: black;">
<rect x="427" y="209.01" width="20" height="1" />
</g>
<g style="fill: black; stroke: black;">
<line x1="459.5" y1="255.73" x2="471" y2="255.73" />
<line x1="459.5" y1="152.98" x2="471" y2="152.98" />
<line x1="459.5" y1="71.52" x2="471" y2="71.52" />
<rect x="466" y="71.52" width="1" height="5" />
</g>
<g style="fill: black; stroke: black;">
<rect x="455" y="224.42" width="20" height="1" />
</g>
<g style="fill: black; stroke: black;">
<line x1="487.5" y1="242.03" x2="499" y2="242.03" />
<line x1="487.5" y1="171.46" x2="499" y2="171.46" />
</g>
<g style="fill: black; stroke: black;">
<rect x="483" y="197.59" width="20" height="1" />
</g>
<g style="text-anchor: end; font-family: Ubuntu,Verdana,sans-serif; font-size: 0.9em;" >
<text x="512" y="282" >01 Jun 2018 u64q</text>
<text x="58" y="282" style="text-anchor: start;" >benchmarks game</text>
</g>
<text x="16" y="144" transform="rotate(270,16,144)" style="text-anchor: middle; font-family: Ubuntu,Verdana,sans-serif; font-size: 0.9em;" >program time / fastest program time</text>
<text x="285" y="18" style="text-anchor: middle; font-family: Ubuntu,Verdana,sans-serif; font-size: 1.2em;" >How many times slower?</text>
<g style="stroke: #333;">
<line x1="58" y1="24" x2="58" y2="264" />
<line x1="511" y1="24" x2="511" y2="264" />
<line x1="58" y1="264" x2="511" y2="264" />
</g>
</svg>

